<?xml version="1.0" standalone="no"?><!DOCTYPE svg PUBLIC "-//W3C//DTD SVG 1.1//EN" "http://www.w3.org/Graphics/SVG/1.1/DTD/svg11.dtd"><svg t="1548840714049" class="icon" style="" viewBox="0 0 1024 1024" version="1.1" xmlns="http://www.w3.org/2000/svg" p-id="5170" xmlns:xlink="http://www.w3.org/1999/xlink" width="200" height="200"><defs><style type="text/css"></style></defs><path d="M316 680h392c15.5 0 28 12.5 28 28s-12.5 28-28 28H316c-15.5 0-28-12.5-28-28s12.5-28 28-28zM316 512h392c15.5 0 28 12.5 28 28s-12.5 28-28 28H316c-15.5 0-28-12.5-28-28s12.5-28 28-28z" p-id="5171"></path><path d="M600.8 120L848 367.2V904H176V120h424.8m0-56H176c-30.9 0-56 25.1-56 56v784c0 30.9 25.1 56 56 56h672c30.9 0 56-25.1 56-56V367.2c0-14.9-5.9-29.1-16.4-39.6L640.4 80.4A55.924 55.924 0 0 0 600.8 64z" p-id="5172"></path><path d="M624 120h-56v252c0 15.5 12.5 28 28 28h28V120z" p-id="5173"></path><path d="M848 344H568v28c0 15.5 12.5 28 28 28h252v-56z" p-id="5174"></path></svg>