<?xml version="1.0" standalone="no"?><!DOCTYPE svg PUBLIC "-//W3C//DTD SVG 1.1//EN" "http://www.w3.org/Graphics/SVG/1.1/DTD/svg11.dtd"><svg t="1545639070421" class="icon" style="" viewBox="0 0 1024 1024" version="1.1" xmlns="http://www.w3.org/2000/svg" p-id="4199" xmlns:xlink="http://www.w3.org/1999/xlink" width="200" height="200"><defs><style type="text/css"></style></defs><path d="M896 170.666667c0-70.4-172.8-128-384-128S128 100.266667 128 170.666667l0 170.666667c0 14.933333 8.533333 29.866667 21.333333 42.666667-14.933333 12.8-21.333333 27.733333-21.333333 42.666667l0 170.666667c0 14.933333 8.533333 29.866667 21.333333 42.666667-14.933333 12.8-21.333333 27.733333-21.333333 42.666667l0 170.666667c0 70.4 172.8 128 384 128s384-57.6 384-128l0-170.666667c0-14.933333-8.533333-29.866667-21.333333-42.666667 14.933333-12.8 21.333333-27.733333 21.333333-42.666667l0-170.666667c0-14.933333-8.533333-29.866667-21.333333-42.666667 14.933333-12.8 21.333333-27.733333 21.333333-42.666667L896 170.666667zM853.333333 795.733333 853.333333 853.333333c0 46.933333-153.6 85.333333-341.333333 85.333333S170.666667 900.266667 170.666667 853.333333l0-57.6 0-53.333333c64 40.533333 192 70.4 341.333333 70.4 149.333333 0 277.333333-27.733333 341.333333-70.4L853.333333 795.733333zM512 768c-187.733333 0-341.333333-38.4-341.333333-85.333333 0-6.4 4.266667-14.933333 10.666667-21.333333 66.133333 38.4 189.866667 64 330.666667 64s264.533333-25.6 330.666667-64c6.4 6.4 10.666667 12.8 10.666667 21.333333C853.333333 729.6 699.733333 768 512 768zM853.333333 539.733333 853.333333 597.333333c0 46.933333-153.6 85.333333-341.333333 85.333333S170.666667 644.266667 170.666667 597.333333l0-57.6 0-53.333333c64 40.533333 192 70.4 341.333333 70.4 149.333333 0 277.333333-27.733333 341.333333-70.4L853.333333 539.733333zM512 512c-187.733333 0-341.333333-38.4-341.333333-85.333333 0-6.4 4.266667-14.933333 10.666667-21.333333 66.133333 38.4 189.866667 64 330.666667 64s264.533333-25.6 330.666667-64c6.4 6.4 10.666667 12.8 10.666667 21.333333C853.333333 473.6 699.733333 512 512 512zM853.333333 283.733333 853.333333 341.333333c0 46.933333-153.6 85.333333-341.333333 85.333333S170.666667 388.266667 170.666667 341.333333l0-57.6 0-53.333333c64 40.533333 192 70.4 341.333333 70.4 149.333333 0 277.333333-27.733333 341.333333-70.4L853.333333 283.733333zM512 256c-187.733333 0-341.333333-38.4-341.333333-85.333333s153.6-85.333333 341.333333-85.333333 341.333333 38.4 341.333333 85.333333S699.733333 256 512 256z" p-id="4200"></path></svg>