<?xml version="1.0" standalone="no"?><!DOCTYPE svg PUBLIC "-//W3C//DTD SVG 1.1//EN" "http://www.w3.org/Graphics/SVG/1.1/DTD/svg11.dtd"><svg t="1546080104215" class="icon" style="" viewBox="0 0 1685 1024" version="1.1" xmlns="http://www.w3.org/2000/svg" p-id="4084" xmlns:xlink="http://www.w3.org/1999/xlink" width="329.1015625" height="200"><defs><style type="text/css"></style></defs><path d="M370.115315 117.08167h90.062823l30.020941 87.775513-30.020941 29.306156h-120.083764l30.020941-117.081669z m281.625017 256.178696l86.631858-112.07818 143.814603 47.032808 9.435153 65.474242L747.664386 467.183024l-95.924054-93.922658z m179.267905 265.470892l81.199497-105.21625 74.909396 44.17367 8.863325 61.47145-75.052352 87.632557-89.919866-88.061427zM1150.373866 877.755131l-23.159012-97.639537 68.190423-53.608823 75.052352 53.608823v68.33338l-120.083763 29.306157zM100.069803 1024V0l240.024571 380.408209 85.345246 27.733631s-41.171576 171.977105-25.303364 177.123552c3.430965 1.143655 90.062823 146.244869 90.062823 146.244869L425.43962 877.755131l124.658384-146.24487-120.083764-175.551026 60.041882-117.08167 120.083764 29.306157 90.062822 204.857183L1030.290102 819.142817l179.982689 204.857183H100.069803z m0 0" p-id="4085"></path></svg>