<?xml version="1.0" standalone="no"?><!DOCTYPE svg PUBLIC "-//W3C//DTD SVG 1.1//EN" "http://www.w3.org/Graphics/SVG/1.1/DTD/svg11.dtd"><svg t="1546080196638" class="icon" style="" viewBox="0 0 1024 1024" version="1.1" xmlns="http://www.w3.org/2000/svg" p-id="4193" xmlns:xlink="http://www.w3.org/1999/xlink" width="200" height="200"><defs><style type="text/css"></style></defs><path d="M532.3 165.4c0-42.6 34.5-77.1 77.1-77.1 42.6 0 77.1 34.5 77.1 77.1 0 42.6-34.5 77.1-77.1 77.1-42.6 0-77.1-34.5-77.1-77.1z m360.5 285.5L770 427.5c-7.7-1.3-14.7-4.1-17.8-11.2L666 310.6s-6.2-14.9-78.1-52.1c-29.4-15.2-68.9-15.3-83.5-14.8l-158.1-0.9c-20-0.1-38.8 9.9-49.8 26.6l-88.2 133.1c-12.1 18.3-7.1 43 11.2 55.1 18.3 12.1 43 7.1 55.1-11.2l74.7-112.8c4.6-7 12.5-11.2 20.9-11.1l86.4 0.5-91.8 172.4-9.8 211.1c-0.7 14.1-9.9 26.5-23.3 31l-202.1 68.8c-22.7 7.7-34.8 32.4-27.1 55 7.7 22.7 32.4 34.8 55 27.1l250.3-85.2c18.1-6.2 30.5-22.7 31.4-41.8l7-149.3c0.6-14 16.3-21.9 27.9-14.1l176.2 118c10.1 6.7 17.4 16.9 20.6 28.6l41.2 150.6c6.3 23.1 30.2 36.7 53.3 30.4 23.1-6.3 36.7-30.2 30.4-53.3l-46.6-170.5c-4.2-15.5-13.8-29-27-38.2L572.9 560.3c-15.8-10.9-21-32-12.1-49l67.3-128.5 65.1 85.8c11.2 14.8 23.3 26.8 41.6 29.9l145.6 24.8c20 3.4 39-10.1 42.5-30.1l0.6-2.3c3.4-19.9-10.7-36.6-30.7-40z" p-id="4194"></path></svg>