<?xml version="1.0" standalone="no"?><!DOCTYPE svg PUBLIC "-//W3C//DTD SVG 1.1//EN" "http://www.w3.org/Graphics/SVG/1.1/DTD/svg11.dtd"><svg t="1545638405637" class="icon" style="" viewBox="0 0 1024 1024" version="1.1" xmlns="http://www.w3.org/2000/svg" p-id="3937" xmlns:xlink="http://www.w3.org/1999/xlink" width="200" height="200"><defs><style type="text/css"></style></defs><path d="M512 0a512 512 0 1 0 512 512A512 512 0 0 0 512 0z m0 960a448 448 0 1 1 448-448 448 448 0 0 1-448 448z" p-id="3938"></path><path d="M412.32 512A99.84 99.84 0 0 0 512 611.68a102.24 102.24 0 0 0 16-1.44c77.76 70.72 146.72 119.04 184.8 128a24.8 24.8 0 0 0 4.96 0 21.28 21.28 0 0 0 21.44-21.28 20.32 20.32 0 0 0-1.76-8.32c-10.88-38.56-58.56-105.92-128-181.44a102.4 102.4 0 0 0 1.28-16A99.68 99.68 0 0 0 512 412.48a102.4 102.4 0 0 0-16 1.28c-77.76-70.72-146.88-119.2-184.8-128a21.44 21.44 0 0 0-20 5.76 21.12 21.12 0 0 0-5.76 20c9.12 37.92 57.44 107.04 128 184.8a102.24 102.24 0 0 0-1.12 15.68z m256 156.32A954.88 954.88 0 0 1 571.36 592 99.36 99.36 0 0 0 592 571.36a954.88 954.88 0 0 1 76.32 96.96zM568.8 512A56.8 56.8 0 1 1 512 455.2 56.8 56.8 0 0 1 568.8 512z" p-id="3939"></path><path d="M490.56 153.76v34.72a21.44 21.44 0 1 0 42.88 0V153.76a353.76 353.76 0 0 1 116.8 26.72 21.28 21.28 0 1 0 16-39.36 401.76 401.76 0 0 0-462.4 628.64 21.44 21.44 0 0 0 16 7.68 22.4 22.4 0 0 0 13.76-4.96 21.44 21.44 0 0 0 2.56-30.24 358.4 358.4 0 0 1-82.72-208h34.72a21.44 21.44 0 0 0 0-42.88H153.6a359.2 359.2 0 0 1 336.96-337.6zM817.28 250.88a21.44 21.44 0 1 0-32 27.84 358.4 358.4 0 0 1 85.44 211.84h-35.2a21.44 21.44 0 0 0 0 42.88h34.72a359.2 359.2 0 0 1-336 336.96v-34.88a21.44 21.44 0 0 0-42.88 0v34.88a359.36 359.36 0 0 1-146.24-40.8 21.44 21.44 0 0 0-20 37.76 401.76 401.76 0 0 0 492.16-616.48z" p-id="3940"></path></svg>